<svg xmlns="http://www.w3.org/2000/svg" viewBox="0 0 240 120"><g transform="translate(0.3 0) scale(1.039 0.976)" transform-origin="120 100"><path d="M21.5 88L23.5 68L86.4 65L79.4 46L77.4 45L154.7 45L176.8 64L180.8 59.1L214.4 59.1L218.4 82L218.4 88Z" fill="#1A1A1E"/><circle cx="47.3" cy="87.7" r="15.3" fill="#FDFBF7" fill-opacity=".14"/><circle cx="184.7" cy="87.7" r="15.3" fill="#FDFBF7" fill-opacity=".14"/><path d="M156.7 48L176.8 66L118 66L118 48Z" fill="#FDFBF7" fill-opacity="0.22"/><path d="M122 48L122 66L85.4 66L78.4 48Z" fill="#FDFBF7" fill-opacity="0.22"/><path d="M120 69V84" fill="none" stroke="#FDFBF7" stroke-opacity="0.35" stroke-width="1.2" stroke-linecap="round" stroke-linejoin="round"/><path d="M83.4 69V84" fill="none" stroke="#FDFBF7" stroke-opacity="0.28" stroke-width="1" stroke-linecap="round" stroke-linejoin="round"/><path d="M123 69.9h10" fill="none" stroke="#FDFBF7" stroke-opacity="0.45" stroke-width="2" stroke-linecap="round" stroke-linejoin="round"/><path d="M87.4 69.9h8" fill="none" stroke="#FDFBF7" stroke-opacity="0.4" stroke-width="2" stroke-linecap="round" stroke-linejoin="round"/><path d="M212.4 62.1h5v4h-5z" fill="#FDFBF7"/><path d="M21.5 69h3v5h-3z" fill="#FDFBF7"/><path d="M217.4 68.1v5M217.4 76.1v5" fill="none" stroke="#FDFBF7" stroke-opacity="0.5" stroke-width="3" stroke-linecap="round" stroke-linejoin="round"/><path d="M217.4 83h-8M22.5 83h8" fill="none" stroke="#FDFBF7" stroke-opacity="0.55" stroke-width="2.6" stroke-linecap="round" stroke-linejoin="round"/><path d="M17.5 85h6v3h-6z" fill="#1A1A1E"/><circle cx="47.3" cy="87.7" r="12.3" fill="#1A1A1E"/><circle cx="47.3" cy="87.7" r="8.118" fill="none" stroke="#FDFBF7" stroke-opacity="0.6" stroke-width="1.6"/><circle cx="47.3" cy="87.7" r="1.845" fill="#FDFBF7" fill-opacity=".55"/><path d="M49.8 87.7L54.7 87.7" fill="none" stroke="#FDFBF7" stroke-opacity="0.5" stroke-width="1.5" stroke-linecap="round" stroke-linejoin="round"/><path d="M49.2 89.3L53 92.4" fill="none" stroke="#FDFBF7" stroke-opacity="0.5" stroke-width="1.5" stroke-linecap="round" stroke-linejoin="round"/><path d="M47.7 90.1L48.6 95" fill="none" stroke="#FDFBF7" stroke-opacity="0.5" stroke-width="1.5" stroke-linecap="round" stroke-linejoin="round"/><path d="M46.1 89.8L43.6 94.1" fill="none" stroke="#FDFBF7" stroke-opacity="0.5" stroke-width="1.5" stroke-linecap="round" stroke-linejoin="round"/><path d="M45 88.5L40.4 90.2" fill="none" stroke="#FDFBF7" stroke-opacity="0.5" stroke-width="1.5" stroke-linecap="round" stroke-linejoin="round"/><path d="M45 86.9L40.4 85.2" fill="none" stroke="#FDFBF7" stroke-opacity="0.5" stroke-width="1.5" stroke-linecap="round" stroke-linejoin="round"/><path d="M46.1 85.6L43.6 81.3" fill="none" stroke="#FDFBF7" stroke-opacity="0.5" stroke-width="1.5" stroke-linecap="round" stroke-linejoin="round"/><path d="M47.7 85.3L48.6 80.4" fill="none" stroke="#FDFBF7" stroke-opacity="0.5" stroke-width="1.5" stroke-linecap="round" stroke-linejoin="round"/><path d="M49.2 86.1L53 83" fill="none" stroke="#FDFBF7" stroke-opacity="0.5" stroke-width="1.5" stroke-linecap="round" stroke-linejoin="round"/><circle cx="184.7" cy="87.7" r="12.3" fill="#1A1A1E"/><circle cx="184.7" cy="87.7" r="8.118" fill="none" stroke="#FDFBF7" stroke-opacity="0.6" stroke-width="1.6"/><circle cx="184.7" cy="87.7" r="1.845" fill="#FDFBF7" fill-opacity=".55"/><path d="M187.2 87.7L192.1 87.7" fill="none" stroke="#FDFBF7" stroke-opacity="0.5" stroke-width="1.5" stroke-linecap="round" stroke-linejoin="round"/><path d="M186.6 89.3L190.4 92.4" fill="none" stroke="#FDFBF7" stroke-opacity="0.5" stroke-width="1.5" stroke-linecap="round" stroke-linejoin="round"/><path d="M185.1 90.1L186 95" fill="none" stroke="#FDFBF7" stroke-opacity="0.5" stroke-width="1.5" stroke-linecap="round" stroke-linejoin="round"/><path d="M183.5 89.8L181 94.1" fill="none" stroke="#FDFBF7" stroke-opacity="0.5" stroke-width="1.5" stroke-linecap="round" stroke-linejoin="round"/><path d="M182.4 88.5L177.8 90.2" fill="none" stroke="#FDFBF7" stroke-opacity="0.5" stroke-width="1.5" stroke-linecap="round" stroke-linejoin="round"/><path d="M182.4 86.9L177.8 85.2" fill="none" stroke="#FDFBF7" stroke-opacity="0.5" stroke-width="1.5" stroke-linecap="round" stroke-linejoin="round"/><path d="M183.5 85.6L181 81.3" fill="none" stroke="#FDFBF7" stroke-opacity="0.5" stroke-width="1.5" stroke-linecap="round" stroke-linejoin="round"/><path d="M185.1 85.3L186 80.4" fill="none" stroke="#FDFBF7" stroke-opacity="0.5" stroke-width="1.5" stroke-linecap="round" stroke-linejoin="round"/><path d="M186.6 86.1L190.4 83" fill="none" stroke="#FDFBF7" stroke-opacity="0.5" stroke-width="1.5" stroke-linecap="round" stroke-linejoin="round"/><path d="M22.5 80h3v4h-3z" fill="#FDFBF7" fill-opacity=".5"/></g><path d="M8 100h224" fill="none" stroke="#FDFBF7" stroke-opacity="0.25" stroke-width="1.2" stroke-linecap="round" stroke-linejoin="round"/></svg>