<svg xmlns="http://www.w3.org/2000/svg" viewBox="0 0 240 120"><g transform="translate(-3.3 0) scale(0.957 1.021)" transform-origin="120 100"><path d="M15.9 88L17.9 70Q19.9 65 29.9 65L96 65Q90 63 90 52Q92 46 100 46L134.7 46Q142.7 46 170.3 65Q176.3 62.7 184.3 61.7L219 61.7Q227 62.7 227 80L227 88Z" fill="#1A1A1E"/><circle cx="44.8" cy="86.2" r="16.8" fill="#FDFBF7" fill-opacity=".14"/><circle cx="187.3" cy="86.2" r="16.8" fill="#FDFBF7" fill-opacity=".14"/><path d="M142.7 49L173.3 67L117.6 67L117.6 49Z" fill="#FDFBF7" fill-opacity="0.22"/><path d="M121.6 49L121.6 67L94 67L89 49Z" fill="#FDFBF7" fill-opacity="0.22"/><path d="M92 47L117.6 47" fill="none" stroke="#FDFBF7" stroke-opacity="0.35" stroke-width="2.2" stroke-linecap="round" stroke-linejoin="round"/><path d="M119.6 70V84" fill="none" stroke="#FDFBF7" stroke-opacity="0.35" stroke-width="1.2" stroke-linecap="round" stroke-linejoin="round"/><path d="M122.6 69.6h6" fill="none" stroke="#FDFBF7" stroke-opacity="0.45" stroke-width="2" stroke-linecap="round" stroke-linejoin="round"/><circle cx="222" cy="67.7" r="3.2" fill="none" stroke="#FDFBF7" stroke-opacity="0.8" stroke-width="1.6"/><circle cx="20.9" cy="73" r="2.4" fill="none" stroke="#FDFBF7" stroke-opacity="0.7" stroke-width="1.4"/><path d="M226 69.7v8.299999999999997" fill="none" stroke="#FDFBF7" stroke-opacity="0.4" stroke-width="3" stroke-linecap="round" stroke-linejoin="round"/><circle cx="224" cy="73.8" r="2.4" fill="none" stroke="#FDFBF7" stroke-opacity="0.6" stroke-width="1.2"/><path d="M226 83h-8M16.9 83h8" fill="none" stroke="#FDFBF7" stroke-opacity="0.55" stroke-width="2.6" stroke-linecap="round" stroke-linejoin="round"/><path d="M11.9 85h6v3h-6z" fill="#1A1A1E"/><circle cx="44.8" cy="86.2" r="13.8" fill="#1A1A1E"/><circle cx="44.8" cy="86.2" r="9.108" fill="none" stroke="#FDFBF7" stroke-opacity="0.6" stroke-width="1.6"/><circle cx="44.8" cy="86.2" r="11.868" fill="none" stroke="#FDFBF7" stroke-opacity="0.7" stroke-width="2"/><circle cx="44.8" cy="86.2" r="2.07" fill="#FDFBF7" fill-opacity=".55"/><circle cx="44.8" cy="86.2" r="6.9" fill="none" stroke="#FDFBF7" stroke-opacity="0.3" stroke-width="4"/><circle cx="44.8" cy="86.2" r="3.9" fill="#FDFBF7" fill-opacity=".45"/><circle cx="187.3" cy="86.2" r="13.8" fill="#1A1A1E"/><circle cx="187.3" cy="86.2" r="9.108" fill="none" stroke="#FDFBF7" stroke-opacity="0.6" stroke-width="1.6"/><circle cx="187.3" cy="86.2" r="11.868" fill="none" stroke="#FDFBF7" stroke-opacity="0.7" stroke-width="2"/><circle cx="187.3" cy="86.2" r="2.07" fill="#FDFBF7" fill-opacity=".55"/><circle cx="187.3" cy="86.2" r="6.9" fill="none" stroke="#FDFBF7" stroke-opacity="0.3" stroke-width="4"/><circle cx="187.3" cy="86.2" r="3.9" fill="#FDFBF7" fill-opacity=".45"/><path d="M21.9 79L219 79" fill="none" stroke="#FDFBF7" stroke-opacity="0.55" stroke-width="1.4" stroke-linecap="round" stroke-linejoin="round"/><path d="M50.5 62h71.5" fill="none" stroke="#FDFBF7" stroke-opacity="0.42" stroke-width="2.2" stroke-linecap="round" stroke-linejoin="round"/></g><path d="M8 100h224" fill="none" stroke="#FDFBF7" stroke-opacity="0.25" stroke-width="1.2" stroke-linecap="round" stroke-linejoin="round"/></svg>