<svg xmlns="http://www.w3.org/2000/svg" viewBox="0 0 240 120"><g transform="translate(3.5 0) scale(0.993 1.026)" transform-origin="120 100"><path d="M23.5 88L25.5 66L91.9 63Q83.9 48.9 75.9 44.9L145.2 44.9Q173.9 46.9 179.9 63L185.9 58.2L214.5 59.2Q220.5 61.2 220.5 81L220.5 88Z" fill="#1A1A1E"/><circle cx="53.1" cy="85.7" r="17.3" fill="#FDFBF7" fill-opacity=".14"/><circle cx="190.7" cy="85.7" r="17.3" fill="#FDFBF7" fill-opacity=".14"/><path d="M147.2 47.9L180.9 65L117.7 65L117.7 47.9Z" fill="#FDFBF7" fill-opacity="0.22"/><path d="M121.7 47.9L121.7 65L89.9 65L82.9 47.9Z" fill="#FDFBF7" fill-opacity="0.22"/><path d="M119.7 68V84" fill="none" stroke="#FDFBF7" stroke-opacity="0.35" stroke-width="1.2" stroke-linecap="round" stroke-linejoin="round"/><path d="M87.9 68V84" fill="none" stroke="#FDFBF7" stroke-opacity="0.28" stroke-width="1" stroke-linecap="round" stroke-linejoin="round"/><path d="M122.7 67.3h10" fill="none" stroke="#FDFBF7" stroke-opacity="0.45" stroke-width="2" stroke-linecap="round" stroke-linejoin="round"/><path d="M91.9 67.3h8" fill="none" stroke="#FDFBF7" stroke-opacity="0.4" stroke-width="2" stroke-linecap="round" stroke-linejoin="round"/><path d="M33.5 71.9L206.5 69.1" fill="none" stroke="#FDFBF7" stroke-opacity="0.4" stroke-width="1.4" stroke-linecap="round" stroke-linejoin="round"/><path d="M212.5 61.2h7v3h-7z" fill="#FDFBF7"/><path d="M23.5 68h5v5h-5z" fill="#FDFBF7"/><path d="M211.5 62.2h7" fill="none" stroke="#FDFBF7" stroke-opacity="0.9" stroke-width="1" stroke-linecap="round" stroke-linejoin="round"/><path d="M219.5 67.2v10.799999999999997M215.5 72.6h5" fill="none" stroke="#FDFBF7" stroke-opacity="0.5" stroke-width="2.4" stroke-linecap="round" stroke-linejoin="round"/><path d="M95.9 44.9l4 -4h6l-2 4z" fill="#1A1A1E"/><path d="M19.5 85h6v3h-6z" fill="#1A1A1E"/><circle cx="53.1" cy="85.7" r="14.3" fill="#1A1A1E"/><circle cx="53.1" cy="85.7" r="9.438" fill="none" stroke="#FDFBF7" stroke-opacity="0.6" stroke-width="1.6"/><circle cx="53.1" cy="85.7" r="2.145" fill="#FDFBF7" fill-opacity=".55"/><path d="M54.8 85.7L60.9 90" fill="none" stroke="#FDFBF7" stroke-opacity="0.45" stroke-width="0.9" stroke-linecap="round" stroke-linejoin="round"/><path d="M54.6 86.4L58.3 92.9" fill="none" stroke="#FDFBF7" stroke-opacity="0.45" stroke-width="0.9" stroke-linecap="round" stroke-linejoin="round"/><path d="M54.2 87L54.6 94.4" fill="none" stroke="#FDFBF7" stroke-opacity="0.45" stroke-width="0.9" stroke-linecap="round" stroke-linejoin="round"/><path d="M53.5 87.4L50.7 94.2" fill="none" stroke="#FDFBF7" stroke-opacity="0.45" stroke-width="0.9" stroke-linecap="round" stroke-linejoin="round"/><path d="M52.7 87.4L47.2 92.3" fill="none" stroke="#FDFBF7" stroke-opacity="0.45" stroke-width="0.9" stroke-linecap="round" stroke-linejoin="round"/><path d="M52 87L44.9 89.1" fill="none" stroke="#FDFBF7" stroke-opacity="0.45" stroke-width="0.9" stroke-linecap="round" stroke-linejoin="round"/><path d="M51.6 86.4L44.2 85.2" fill="none" stroke="#FDFBF7" stroke-opacity="0.45" stroke-width="0.9" stroke-linecap="round" stroke-linejoin="round"/><path d="M51.4 85.7L45.3 81.4" fill="none" stroke="#FDFBF7" stroke-opacity="0.45" stroke-width="0.9" stroke-linecap="round" stroke-linejoin="round"/><path d="M51.6 85L47.9 78.5" fill="none" stroke="#FDFBF7" stroke-opacity="0.45" stroke-width="0.9" stroke-linecap="round" stroke-linejoin="round"/><path d="M52 84.4L51.6 77" fill="none" stroke="#FDFBF7" stroke-opacity="0.45" stroke-width="0.9" stroke-linecap="round" stroke-linejoin="round"/><path d="M52.7 84L55.5 77.2" fill="none" stroke="#FDFBF7" stroke-opacity="0.45" stroke-width="0.9" stroke-linecap="round" stroke-linejoin="round"/><path d="M53.5 84L59 79.1" fill="none" stroke="#FDFBF7" stroke-opacity="0.45" stroke-width="0.9" stroke-linecap="round" stroke-linejoin="round"/><path d="M54.2 84.4L61.3 82.3" fill="none" stroke="#FDFBF7" stroke-opacity="0.45" stroke-width="0.9" stroke-linecap="round" stroke-linejoin="round"/><path d="M54.6 85L62 86.2" fill="none" stroke="#FDFBF7" stroke-opacity="0.45" stroke-width="0.9" stroke-linecap="round" stroke-linejoin="round"/><circle cx="190.7" cy="85.7" r="14.3" fill="#1A1A1E"/><circle cx="190.7" cy="85.7" r="9.438" fill="none" stroke="#FDFBF7" stroke-opacity="0.6" stroke-width="1.6"/><circle cx="190.7" cy="85.7" r="2.145" fill="#FDFBF7" fill-opacity=".55"/><path d="M192.4 85.7L198.5 90" fill="none" stroke="#FDFBF7" stroke-opacity="0.45" stroke-width="0.9" stroke-linecap="round" stroke-linejoin="round"/><path d="M192.2 86.4L195.9 92.9" fill="none" stroke="#FDFBF7" stroke-opacity="0.45" stroke-width="0.9" stroke-linecap="round" stroke-linejoin="round"/><path d="M191.8 87L192.2 94.4" fill="none" stroke="#FDFBF7" stroke-opacity="0.45" stroke-width="0.9" stroke-linecap="round" stroke-linejoin="round"/><path d="M191.1 87.4L188.3 94.2" fill="none" stroke="#FDFBF7" stroke-opacity="0.45" stroke-width="0.9" stroke-linecap="round" stroke-linejoin="round"/><path d="M190.3 87.4L184.8 92.3" fill="none" stroke="#FDFBF7" stroke-opacity="0.45" stroke-width="0.9" stroke-linecap="round" stroke-linejoin="round"/><path d="M189.6 87L182.5 89.1" fill="none" stroke="#FDFBF7" stroke-opacity="0.45" stroke-width="0.9" stroke-linecap="round" stroke-linejoin="round"/><path d="M189.2 86.4L181.8 85.2" fill="none" stroke="#FDFBF7" stroke-opacity="0.45" stroke-width="0.9" stroke-linecap="round" stroke-linejoin="round"/><path d="M189 85.7L182.9 81.4" fill="none" stroke="#FDFBF7" stroke-opacity="0.45" stroke-width="0.9" stroke-linecap="round" stroke-linejoin="round"/><path d="M189.2 85L185.5 78.5" fill="none" stroke="#FDFBF7" stroke-opacity="0.45" stroke-width="0.9" stroke-linecap="round" stroke-linejoin="round"/><path d="M189.6 84.4L189.2 77" fill="none" stroke="#FDFBF7" stroke-opacity="0.45" stroke-width="0.9" stroke-linecap="round" stroke-linejoin="round"/><path d="M190.3 84L193.1 77.2" fill="none" stroke="#FDFBF7" stroke-opacity="0.45" stroke-width="0.9" stroke-linecap="round" stroke-linejoin="round"/><path d="M191.1 84L196.6 79.1" fill="none" stroke="#FDFBF7" stroke-opacity="0.45" stroke-width="0.9" stroke-linecap="round" stroke-linejoin="round"/><path d="M191.8 84.4L198.9 82.3" fill="none" stroke="#FDFBF7" stroke-opacity="0.45" stroke-width="0.9" stroke-linecap="round" stroke-linejoin="round"/><path d="M192.2 85L199.6 86.2" fill="none" stroke="#FDFBF7" stroke-opacity="0.45" stroke-width="0.9" stroke-linecap="round" stroke-linejoin="round"/><path d="M29.5 66L210.5 66" fill="none" stroke="#FDFBF7" stroke-opacity="0.3" stroke-width="4" stroke-linecap="round" stroke-linejoin="round"/><path d="M183.9 60.2L210.5 61.2" fill="none" stroke="#FDFBF7" stroke-opacity="0.6" stroke-width="3" stroke-linecap="round" stroke-linejoin="round"/><path d="M42.5 63.1h56.5" fill="none" stroke="#FDFBF7" stroke-opacity="0.42" stroke-width="2.2" stroke-linecap="round" stroke-linejoin="round"/></g><path d="M8 100h224" fill="none" stroke="#FDFBF7" stroke-opacity="0.25" stroke-width="1.2" stroke-linecap="round" stroke-linejoin="round"/></svg>