<svg xmlns="http://www.w3.org/2000/svg" viewBox="0 0 240 120"><g transform="translate(1.9 0) scale(1 0.97)" transform-origin="120 100"><path d="M21.6 88L23.6 66L80.7 63Q72.7 46 64.7 42L151.3 42Q171.7 44 177.7 63L183.7 58.7L218.7 59.7Q224.7 61.7 224.7 81L224.7 88Z" fill="#1A1A1E"/><circle cx="54.5" cy="86.6" r="16.4" fill="#FDFBF7" fill-opacity=".14"/><circle cx="189" cy="86.6" r="16.4" fill="#FDFBF7" fill-opacity=".14"/><path d="M153.3 45L178.7 65L113.2 65L113.2 45Z" fill="#FDFBF7" fill-opacity="0.22"/><path d="M117.2 45L117.2 65L78.7 65L71.7 45Z" fill="#FDFBF7" fill-opacity="0.22"/><path d="M115.2 68V84" fill="none" stroke="#FDFBF7" stroke-opacity="0.35" stroke-width="1.2" stroke-linecap="round" stroke-linejoin="round"/><path d="M76.7 68V84" fill="none" stroke="#FDFBF7" stroke-opacity="0.28" stroke-width="1" stroke-linecap="round" stroke-linejoin="round"/><path d="M118.2 68.9h10" fill="none" stroke="#FDFBF7" stroke-opacity="0.45" stroke-width="2" stroke-linecap="round" stroke-linejoin="round"/><path d="M80.7 68.9h8" fill="none" stroke="#FDFBF7" stroke-opacity="0.4" stroke-width="2" stroke-linecap="round" stroke-linejoin="round"/><path d="M31.6 72.6L210.7 71.6" fill="none" stroke="#FDFBF7" stroke-opacity="0.4" stroke-width="1.4" stroke-linecap="round" stroke-linejoin="round"/><path d="M216.7 61.7h7v3h-7z" fill="#FDFBF7"/><path d="M21.6 68h5v5h-5z" fill="#FDFBF7"/><path d="M215.7 62.7h7" fill="none" stroke="#FDFBF7" stroke-opacity="0.9" stroke-width="1" stroke-linecap="round" stroke-linejoin="round"/><path d="M223.7 67.7v10.299999999999997M219.7 72.8h5" fill="none" stroke="#FDFBF7" stroke-opacity="0.5" stroke-width="2.4" stroke-linecap="round" stroke-linejoin="round"/><path d="M88.7 42l-3 -7" fill="none" stroke="#FDFBF7" stroke-opacity="0.6" stroke-width="1.2" stroke-linecap="round" stroke-linejoin="round"/><path d="M17.6 85h6v3h-6z" fill="#1A1A1E"/><circle cx="54.5" cy="86.6" r="13.4" fill="#1A1A1E"/><circle cx="54.5" cy="86.6" r="8.844000000000001" fill="none" stroke="#FDFBF7" stroke-opacity="0.6" stroke-width="1.6"/><circle cx="54.5" cy="86.6" r="2.01" fill="#FDFBF7" fill-opacity=".55"/><circle cx="54.5" cy="86.6" r="6.03" fill="none" stroke="#FDFBF7" stroke-opacity="0.35" stroke-width="3"/><circle cx="54.5" cy="86.6" r="4.02" fill="none" stroke="#FDFBF7" stroke-opacity="0.4" stroke-width="1"/><circle cx="189" cy="86.6" r="13.4" fill="#1A1A1E"/><circle cx="189" cy="86.6" r="8.844000000000001" fill="none" stroke="#FDFBF7" stroke-opacity="0.6" stroke-width="1.6"/><circle cx="189" cy="86.6" r="2.01" fill="#FDFBF7" fill-opacity=".55"/><circle cx="189" cy="86.6" r="6.03" fill="none" stroke="#FDFBF7" stroke-opacity="0.35" stroke-width="3"/><circle cx="189" cy="86.6" r="4.02" fill="none" stroke="#FDFBF7" stroke-opacity="0.4" stroke-width="1"/><path d="M76.7 36h68.60000000000001v5h-68.60000000000001z" fill="#1A1A1E"/><path d="M78.7 39h5M138.3 39h5" fill="none" stroke="#FDFBF7" stroke-opacity="0.8" stroke-width="2" stroke-linecap="round" stroke-linejoin="round"/><path d="M181.7 60.7L214.7 61.7" fill="none" stroke="#FDFBF7" stroke-opacity="0.6" stroke-width="3" stroke-linecap="round" stroke-linejoin="round"/></g><path d="M8 100h224" fill="none" stroke="#FDFBF7" stroke-opacity="0.25" stroke-width="1.2" stroke-linecap="round" stroke-linejoin="round"/></svg>