<svg xmlns="http://www.w3.org/2000/svg" viewBox="0 0 240 120"><g transform="translate(-4.5 0) scale(1.017 0.962)" transform-origin="120 100"><path d="M22 86L22 62L114 62L114 42.5Q114 40.5 118 40.5L154 40.5L176 60L182 56L217 57L222 78L222 86Z" fill="#1A1A1E"/><path d="M24 64L112 64" fill="none" stroke="#FDFBF7" stroke-opacity="0.4" stroke-width="1.4" stroke-linecap="round" stroke-linejoin="round"/><path d="M24 72L112 72" fill="none" stroke="#FDFBF7" stroke-opacity="0.3" stroke-width="1.2" stroke-linecap="round" stroke-linejoin="round"/><path d="M156 43.5L180 62L110 62L110 43.5Z" fill="#FDFBF7" fill-opacity="0.22"/><path d="M216 60h5v4h-5z" fill="#FDFBF7"/><path d="M22 65h3v5h-3z" fill="#FDFBF7"/><circle cx="49.7" cy="84.9" r="15.1" fill="#1A1A1E"/><circle cx="49.7" cy="84.9" r="9.362" fill="none" stroke="#FDFBF7" stroke-opacity="0.6" stroke-width="1.6"/><circle cx="49.7" cy="84.9" r="2.718" fill="#FDFBF7" fill-opacity=".6"/><path d="M52.7 84.9L58.5 84.9" fill="none" stroke="#FDFBF7" stroke-opacity="0.45" stroke-width="1.4" stroke-linecap="round" stroke-linejoin="round"/><path d="M51.6 87.3L55.2 91.7" fill="none" stroke="#FDFBF7" stroke-opacity="0.45" stroke-width="1.4" stroke-linecap="round" stroke-linejoin="round"/><path d="M49 87.8L47.8 93.4" fill="none" stroke="#FDFBF7" stroke-opacity="0.45" stroke-width="1.4" stroke-linecap="round" stroke-linejoin="round"/><path d="M47 86.2L41.8 88.7" fill="none" stroke="#FDFBF7" stroke-opacity="0.45" stroke-width="1.4" stroke-linecap="round" stroke-linejoin="round"/><path d="M47 83.6L41.8 81.1" fill="none" stroke="#FDFBF7" stroke-opacity="0.45" stroke-width="1.4" stroke-linecap="round" stroke-linejoin="round"/><path d="M49 82L47.8 76.4" fill="none" stroke="#FDFBF7" stroke-opacity="0.45" stroke-width="1.4" stroke-linecap="round" stroke-linejoin="round"/><path d="M51.6 82.5L55.2 78.1" fill="none" stroke="#FDFBF7" stroke-opacity="0.45" stroke-width="1.4" stroke-linecap="round" stroke-linejoin="round"/><circle cx="190.8" cy="84.9" r="15.1" fill="#1A1A1E"/><circle cx="190.8" cy="84.9" r="9.362" fill="none" stroke="#FDFBF7" stroke-opacity="0.6" stroke-width="1.6"/><circle cx="190.8" cy="84.9" r="2.718" fill="#FDFBF7" fill-opacity=".6"/><path d="M193.8 84.9L199.6 84.9" fill="none" stroke="#FDFBF7" stroke-opacity="0.45" stroke-width="1.4" stroke-linecap="round" stroke-linejoin="round"/><path d="M192.7 87.3L196.3 91.7" fill="none" stroke="#FDFBF7" stroke-opacity="0.45" stroke-width="1.4" stroke-linecap="round" stroke-linejoin="round"/><path d="M190.1 87.8L188.9 93.4" fill="none" stroke="#FDFBF7" stroke-opacity="0.45" stroke-width="1.4" stroke-linecap="round" stroke-linejoin="round"/><path d="M188.1 86.2L182.9 88.7" fill="none" stroke="#FDFBF7" stroke-opacity="0.45" stroke-width="1.4" stroke-linecap="round" stroke-linejoin="round"/><path d="M188.1 83.6L182.9 81.1" fill="none" stroke="#FDFBF7" stroke-opacity="0.45" stroke-width="1.4" stroke-linecap="round" stroke-linejoin="round"/><path d="M190.1 82L188.9 76.4" fill="none" stroke="#FDFBF7" stroke-opacity="0.45" stroke-width="1.4" stroke-linecap="round" stroke-linejoin="round"/><path d="M192.7 82.5L196.3 78.1" fill="none" stroke="#FDFBF7" stroke-opacity="0.45" stroke-width="1.4" stroke-linecap="round" stroke-linejoin="round"/><path d="M79 60.6h62.8" fill="none" stroke="#FDFBF7" stroke-opacity="0.42" stroke-width="2.2" stroke-linecap="round" stroke-linejoin="round"/></g><path d="M8 100h224" fill="none" stroke="#FDFBF7" stroke-opacity="0.25" stroke-width="1.2" stroke-linecap="round" stroke-linejoin="round"/></svg>