<svg xmlns="http://www.w3.org/2000/svg" viewBox="0 0 240 120"><g transform="translate(-1.5 0) scale(0.96 1.023)" transform-origin="120 100"><path d="M19 88L21 67L90 64Q82 46.8 74 42.8L146.6 42.8Q168.3 44.8 174.3 64L180.3 57.9L216 58.9Q222 60.9 222 81L222 88Z" fill="#1A1A1E"/><circle cx="45.8" cy="86.2" r="16.8" fill="#FDFBF7" fill-opacity=".14"/><circle cx="192.2" cy="86.2" r="16.8" fill="#FDFBF7" fill-opacity=".14"/><path d="M148.6 45.8L175.3 66L114.4 66L114.4 45.8Z" fill="#FDFBF7" fill-opacity="0.22"/><path d="M118.4 45.8L118.4 66L88 66L81 45.8Z" fill="#FDFBF7" fill-opacity="0.22"/><path d="M116.4 69V84" fill="none" stroke="#FDFBF7" stroke-opacity="0.35" stroke-width="1.2" stroke-linecap="round" stroke-linejoin="round"/><path d="M86 69V84" fill="none" stroke="#FDFBF7" stroke-opacity="0.28" stroke-width="1" stroke-linecap="round" stroke-linejoin="round"/><path d="M119.4 68.6h10" fill="none" stroke="#FDFBF7" stroke-opacity="0.45" stroke-width="2" stroke-linecap="round" stroke-linejoin="round"/><path d="M90 68.6h8" fill="none" stroke="#FDFBF7" stroke-opacity="0.4" stroke-width="2" stroke-linecap="round" stroke-linejoin="round"/><path d="M216 60.9h5v4h-5z" fill="#FDFBF7"/><path d="M19 69h3v5h-3z" fill="#FDFBF7"/><path d="M221 66.9v11.099999999999994" fill="none" stroke="#FDFBF7" stroke-opacity="0.4" stroke-width="2.4" stroke-linecap="round" stroke-linejoin="round"/><path d="M218 69.9h3M218 73.9h3M218 77.9h3" fill="none" stroke="#FDFBF7" stroke-opacity="0.5" stroke-width="1.2" stroke-linecap="round" stroke-linejoin="round"/><path d="M15 85h6v3h-6z" fill="#1A1A1E"/><circle cx="45.8" cy="86.2" r="13.8" fill="#1A1A1E"/><circle cx="45.8" cy="86.2" r="9.108" fill="none" stroke="#FDFBF7" stroke-opacity="0.6" stroke-width="1.6"/><circle cx="45.8" cy="86.2" r="2.07" fill="#FDFBF7" fill-opacity=".55"/><path d="M48.5 86L54 85.5M48.5 86.4L54 86.9" fill="none" stroke="#FDFBF7" stroke-opacity="0.5" stroke-width="1.1" stroke-linecap="round" stroke-linejoin="round"/><path d="M44.6 88.7L42.3 93.7M44.2 88.5L41 93" fill="none" stroke="#FDFBF7" stroke-opacity="0.5" stroke-width="1.1" stroke-linecap="round" stroke-linejoin="round"/><path d="M44.2 83.9L41 79.4M44.6 83.7L42.3 78.7" fill="none" stroke="#FDFBF7" stroke-opacity="0.5" stroke-width="1.1" stroke-linecap="round" stroke-linejoin="round"/><circle cx="192.2" cy="86.2" r="13.8" fill="#1A1A1E"/><circle cx="192.2" cy="86.2" r="9.108" fill="none" stroke="#FDFBF7" stroke-opacity="0.6" stroke-width="1.6"/><circle cx="192.2" cy="86.2" r="2.07" fill="#FDFBF7" fill-opacity=".55"/><path d="M194.9 86L200.4 85.5M194.9 86.4L200.4 86.9" fill="none" stroke="#FDFBF7" stroke-opacity="0.5" stroke-width="1.1" stroke-linecap="round" stroke-linejoin="round"/><path d="M191 88.7L188.7 93.7M190.6 88.5L187.4 93" fill="none" stroke="#FDFBF7" stroke-opacity="0.5" stroke-width="1.1" stroke-linecap="round" stroke-linejoin="round"/><path d="M190.6 83.9L187.4 79.4M191 83.7L188.7 78.7" fill="none" stroke="#FDFBF7" stroke-opacity="0.5" stroke-width="1.1" stroke-linecap="round" stroke-linejoin="round"/><path d="M57.1 66.6h78.4" fill="none" stroke="#FDFBF7" stroke-opacity="0.42" stroke-width="2.2" stroke-linecap="round" stroke-linejoin="round"/></g><path d="M8 100h224" fill="none" stroke="#FDFBF7" stroke-opacity="0.25" stroke-width="1.2" stroke-linecap="round" stroke-linejoin="round"/></svg>