<svg xmlns="http://www.w3.org/2000/svg" viewBox="0 0 240 120"><g transform="translate(4.9 0) scale(1.021 0.965)" transform-origin="120 100"><path d="M64 86L112 46L154 46L176 86M112 46L130 84M154 46L128 84M128 84L64 86" fill="none" stroke="#FDFBF7" stroke-opacity="0.85" stroke-width="3" stroke-linecap="round" stroke-linejoin="round"/><path d="M154 46L160 34M108 46L104 34" fill="none" stroke="#FDFBF7" stroke-opacity="0.85" stroke-width="3" stroke-linecap="round" stroke-linejoin="round"/><path d="M96 30h16v4h-16z" fill="#1A1A1E"/><path d="M150 30h20v3h-20z" fill="#1A1A1E"/><path d="M118 60L142 56L146 70L122 74Z" fill="#1A1A1E"/><path d="M40 76h18v6h-18z" fill="#1A1A1E"/><circle cx="128" cy="84" r="4" fill="#1A1A1E"/><path d="M128 84L120 92M128 84L136 76" fill="none" stroke="#FDFBF7" stroke-opacity="0.8" stroke-width="2.5" stroke-linecap="round" stroke-linejoin="round"/><circle cx="64" cy="86" r="14" fill="none" stroke="#FDFBF7" stroke-opacity="0.9" stroke-width="2.2"/><circle cx="176" cy="86" r="14" fill="none" stroke="#FDFBF7" stroke-opacity="0.9" stroke-width="2.2"/><circle cx="64" cy="86" r="11" fill="none" stroke="#FDFBF7" stroke-opacity="0.35" stroke-width="1"/><circle cx="176" cy="86" r="11" fill="none" stroke="#FDFBF7" stroke-opacity="0.35" stroke-width="1"/><path d="M42.3 63h59.2" fill="none" stroke="#FDFBF7" stroke-opacity="0.42" stroke-width="2.2" stroke-linecap="round" stroke-linejoin="round"/></g><path d="M8 100h224" fill="none" stroke="#FDFBF7" stroke-opacity="0.25" stroke-width="1.2" stroke-linecap="round" stroke-linejoin="round"/></svg>