<svg xmlns="http://www.w3.org/2000/svg" viewBox="0 0 240 120"><g transform="translate(-3.2 0) scale(1.019 0.982)" transform-origin="120 100"><path d="M19.3 88L21.3 71L31.3 69L76.2 49.5L126.2 49.5L167.9 67L175.9 63.5L220.4 64.5L226.4 81L226.4 88Z" fill="#1A1A1E"/><circle cx="50" cy="85.6" r="17.4" fill="#FDFBF7" fill-opacity=".14"/><circle cx="194.8" cy="85.6" r="17.4" fill="#FDFBF7" fill-opacity=".14"/><path d="M128.2 52.5L172.9 70L101.5 70L101.5 52.5Z" fill="#FDFBF7" fill-opacity="0.22"/><path d="M105.5 52.5L105.5 70L80.2 70L75.2 52.5Z" fill="#FDFBF7" fill-opacity="0.22"/><path d="M78.2 50.5L101.5 50.5" fill="none" stroke="#FDFBF7" stroke-opacity="0.35" stroke-width="2.2" stroke-linecap="round" stroke-linejoin="round"/><path d="M103.5 73V84" fill="none" stroke="#FDFBF7" stroke-opacity="0.35" stroke-width="1.2" stroke-linecap="round" stroke-linejoin="round"/><path d="M106.5 73.1h10" fill="none" stroke="#FDFBF7" stroke-opacity="0.45" stroke-width="2" stroke-linecap="round" stroke-linejoin="round"/><path d="M68.4 85L176.4 85" fill="none" stroke="#FDFBF7" stroke-opacity="0.45" stroke-width="2.2" stroke-linecap="round" stroke-linejoin="round"/><path d="M218.4 66.5h7v4h-7z" fill="#FDFBF7"/><path d="M19.3 73h3v5h-3z" fill="#FDFBF7"/><path d="M217.4 67.5h7" fill="none" stroke="#FDFBF7" stroke-opacity="0.9" stroke-width="1" stroke-linecap="round" stroke-linejoin="round"/><path d="M225.4 72h-8" fill="none" stroke="#FDFBF7" stroke-opacity="0.4" stroke-width="3" stroke-linecap="round" stroke-linejoin="round"/><path d="M223.4 71.5h-6" fill="none" stroke="#FDFBF7" stroke-opacity="0.5" stroke-width="1.2" stroke-linecap="round" stroke-linejoin="round"/><path d="M15.3 85h6v3h-6z" fill="#1A1A1E"/><path d="M15.3 81h6v3h-6z" fill="#1A1A1E"/><circle cx="50" cy="85.6" r="14.4" fill="#1A1A1E"/><circle cx="50" cy="85.6" r="9.504000000000001" fill="none" stroke="#FDFBF7" stroke-opacity="0.6" stroke-width="1.6"/><circle cx="50" cy="85.6" r="2.16" fill="#FDFBF7" fill-opacity=".55"/><path d="M52.9 85.3L58.6 84.8M52.9 85.9L58.6 86.4" fill="none" stroke="#FDFBF7" stroke-opacity="0.5" stroke-width="1.1" stroke-linecap="round" stroke-linejoin="round"/><path d="M51.1 88.2L53.4 93.5M50.6 88.4L51.9 94" fill="none" stroke="#FDFBF7" stroke-opacity="0.5" stroke-width="1.1" stroke-linecap="round" stroke-linejoin="round"/><path d="M47.8 87.5L43.5 91.3M47.5 87.1L42.6 90" fill="none" stroke="#FDFBF7" stroke-opacity="0.5" stroke-width="1.1" stroke-linecap="round" stroke-linejoin="round"/><path d="M47.5 84.1L42.6 81.2M47.8 83.7L43.5 79.9" fill="none" stroke="#FDFBF7" stroke-opacity="0.5" stroke-width="1.1" stroke-linecap="round" stroke-linejoin="round"/><path d="M50.6 82.8L51.9 77.2M51.1 83L53.4 77.7" fill="none" stroke="#FDFBF7" stroke-opacity="0.5" stroke-width="1.1" stroke-linecap="round" stroke-linejoin="round"/><circle cx="194.8" cy="85.6" r="14.4" fill="#1A1A1E"/><circle cx="194.8" cy="85.6" r="9.504000000000001" fill="none" stroke="#FDFBF7" stroke-opacity="0.6" stroke-width="1.6"/><circle cx="194.8" cy="85.6" r="2.16" fill="#FDFBF7" fill-opacity=".55"/><path d="M197.7 85.3L203.4 84.8M197.7 85.9L203.4 86.4" fill="none" stroke="#FDFBF7" stroke-opacity="0.5" stroke-width="1.1" stroke-linecap="round" stroke-linejoin="round"/><path d="M195.9 88.2L198.2 93.5M195.4 88.4L196.7 94" fill="none" stroke="#FDFBF7" stroke-opacity="0.5" stroke-width="1.1" stroke-linecap="round" stroke-linejoin="round"/><path d="M192.6 87.5L188.3 91.3M192.3 87.1L187.4 90" fill="none" stroke="#FDFBF7" stroke-opacity="0.5" stroke-width="1.1" stroke-linecap="round" stroke-linejoin="round"/><path d="M192.3 84.1L187.4 81.2M192.6 83.7L188.3 79.9" fill="none" stroke="#FDFBF7" stroke-opacity="0.5" stroke-width="1.1" stroke-linecap="round" stroke-linejoin="round"/><path d="M195.4 82.8L196.7 77.2M195.9 83L198.2 77.7" fill="none" stroke="#FDFBF7" stroke-opacity="0.5" stroke-width="1.1" stroke-linecap="round" stroke-linejoin="round"/><path d="M19.3 85h14l-2 3h-12z" fill="#1A1A1E"/><path d="M25.3 71L216.4 71" fill="none" stroke="#FDFBF7" stroke-opacity="0.3" stroke-width="4" stroke-linecap="round" stroke-linejoin="round"/><path d="M49.2 61.1h69.4" fill="none" stroke="#FDFBF7" stroke-opacity="0.42" stroke-width="2.2" stroke-linecap="round" stroke-linejoin="round"/></g><path d="M8 100h224" fill="none" stroke="#FDFBF7" stroke-opacity="0.25" stroke-width="1.2" stroke-linecap="round" stroke-linejoin="round"/></svg>