<svg xmlns="http://www.w3.org/2000/svg" viewBox="0 0 240 120"><g transform="translate(4.8 0) scale(1.06 0.99)" transform-origin="120 100"><path d="M25.1 88L27.1 68L89.3 65L82.3 45.9L80.3 44.9L150.3 44.9L174.3 64L178.3 60.1L218 60.1L222 82L222 88Z" fill="#1A1A1E"/><circle cx="51.4" cy="86.1" r="16.9" fill="#FDFBF7" fill-opacity=".14"/><circle cx="182.6" cy="86.1" r="16.9" fill="#FDFBF7" fill-opacity=".14"/><path d="M152.3 47.9L174.3 66L119.8 66L119.8 47.9Z" fill="#FDFBF7" fill-opacity="0.22"/><path d="M123.8 47.9L123.8 66L88.3 66L81.3 47.9Z" fill="#FDFBF7" fill-opacity="0.22"/><path d="M121.8 69V84" fill="none" stroke="#FDFBF7" stroke-opacity="0.35" stroke-width="1.2" stroke-linecap="round" stroke-linejoin="round"/><path d="M86.3 69V84" fill="none" stroke="#FDFBF7" stroke-opacity="0.28" stroke-width="1" stroke-linecap="round" stroke-linejoin="round"/><path d="M124.8 68.6h10" fill="none" stroke="#FDFBF7" stroke-opacity="0.45" stroke-width="2" stroke-linecap="round" stroke-linejoin="round"/><path d="M90.3 68.6h8" fill="none" stroke="#FDFBF7" stroke-opacity="0.4" stroke-width="2" stroke-linecap="round" stroke-linejoin="round"/><path d="M216 63.1h5v4h-5z" fill="#FDFBF7"/><path d="M25.1 69h3v5h-3z" fill="#FDFBF7"/><path d="M221 73.5v4.5" fill="none" stroke="#FDFBF7" stroke-opacity="0.4" stroke-width="4" stroke-linecap="round" stroke-linejoin="round"/><path d="M221 70.1h-3" fill="none" stroke="#FDFBF7" stroke-opacity="0.5" stroke-width="2" stroke-linecap="round" stroke-linejoin="round"/><path d="M221 83h-8M26.1 83h8" fill="none" stroke="#FDFBF7" stroke-opacity="0.55" stroke-width="2.6" stroke-linecap="round" stroke-linejoin="round"/><path d="M21.1 85h6v3h-6z" fill="#1A1A1E"/><path d="M21.1 81h6v3h-6z" fill="#1A1A1E"/><circle cx="51.4" cy="86.1" r="13.9" fill="#1A1A1E"/><circle cx="51.4" cy="86.1" r="9.174000000000001" fill="none" stroke="#FDFBF7" stroke-opacity="0.6" stroke-width="1.6"/><circle cx="51.4" cy="86.1" r="2.085" fill="#FDFBF7" fill-opacity=".55"/><path d="M53.1 86.1L59 90.2" fill="none" stroke="#FDFBF7" stroke-opacity="0.45" stroke-width="0.9" stroke-linecap="round" stroke-linejoin="round"/><path d="M52.9 86.8L56.4 93.1" fill="none" stroke="#FDFBF7" stroke-opacity="0.45" stroke-width="0.9" stroke-linecap="round" stroke-linejoin="round"/><path d="M52.4 87.4L52.9 94.6" fill="none" stroke="#FDFBF7" stroke-opacity="0.45" stroke-width="0.9" stroke-linecap="round" stroke-linejoin="round"/><path d="M51.8 87.7L49.1 94.4" fill="none" stroke="#FDFBF7" stroke-opacity="0.45" stroke-width="0.9" stroke-linecap="round" stroke-linejoin="round"/><path d="M51 87.7L45.7 92.6" fill="none" stroke="#FDFBF7" stroke-opacity="0.45" stroke-width="0.9" stroke-linecap="round" stroke-linejoin="round"/><path d="M50.4 87.4L43.5 89.4" fill="none" stroke="#FDFBF7" stroke-opacity="0.45" stroke-width="0.9" stroke-linecap="round" stroke-linejoin="round"/><path d="M49.9 86.8L42.8 85.7" fill="none" stroke="#FDFBF7" stroke-opacity="0.45" stroke-width="0.9" stroke-linecap="round" stroke-linejoin="round"/><path d="M49.7 86.1L43.8 82" fill="none" stroke="#FDFBF7" stroke-opacity="0.45" stroke-width="0.9" stroke-linecap="round" stroke-linejoin="round"/><path d="M49.9 85.4L46.4 79.1" fill="none" stroke="#FDFBF7" stroke-opacity="0.45" stroke-width="0.9" stroke-linecap="round" stroke-linejoin="round"/><path d="M50.4 84.8L49.9 77.6" fill="none" stroke="#FDFBF7" stroke-opacity="0.45" stroke-width="0.9" stroke-linecap="round" stroke-linejoin="round"/><path d="M51 84.5L53.7 77.8" fill="none" stroke="#FDFBF7" stroke-opacity="0.45" stroke-width="0.9" stroke-linecap="round" stroke-linejoin="round"/><path d="M51.8 84.5L57.1 79.6" fill="none" stroke="#FDFBF7" stroke-opacity="0.45" stroke-width="0.9" stroke-linecap="round" stroke-linejoin="round"/><path d="M52.4 84.8L59.3 82.8" fill="none" stroke="#FDFBF7" stroke-opacity="0.45" stroke-width="0.9" stroke-linecap="round" stroke-linejoin="round"/><path d="M52.9 85.4L60 86.5" fill="none" stroke="#FDFBF7" stroke-opacity="0.45" stroke-width="0.9" stroke-linecap="round" stroke-linejoin="round"/><circle cx="182.6" cy="86.1" r="13.9" fill="#1A1A1E"/><circle cx="182.6" cy="86.1" r="9.174000000000001" fill="none" stroke="#FDFBF7" stroke-opacity="0.6" stroke-width="1.6"/><circle cx="182.6" cy="86.1" r="2.085" fill="#FDFBF7" fill-opacity=".55"/><path d="M184.3 86.1L190.2 90.2" fill="none" stroke="#FDFBF7" stroke-opacity="0.45" stroke-width="0.9" stroke-linecap="round" stroke-linejoin="round"/><path d="M184.1 86.8L187.6 93.1" fill="none" stroke="#FDFBF7" stroke-opacity="0.45" stroke-width="0.9" stroke-linecap="round" stroke-linejoin="round"/><path d="M183.6 87.4L184.1 94.6" fill="none" stroke="#FDFBF7" stroke-opacity="0.45" stroke-width="0.9" stroke-linecap="round" stroke-linejoin="round"/><path d="M183 87.7L180.3 94.4" fill="none" stroke="#FDFBF7" stroke-opacity="0.45" stroke-width="0.9" stroke-linecap="round" stroke-linejoin="round"/><path d="M182.2 87.7L176.9 92.6" fill="none" stroke="#FDFBF7" stroke-opacity="0.45" stroke-width="0.9" stroke-linecap="round" stroke-linejoin="round"/><path d="M181.6 87.4L174.7 89.4" fill="none" stroke="#FDFBF7" stroke-opacity="0.45" stroke-width="0.9" stroke-linecap="round" stroke-linejoin="round"/><path d="M181.1 86.8L174 85.7" fill="none" stroke="#FDFBF7" stroke-opacity="0.45" stroke-width="0.9" stroke-linecap="round" stroke-linejoin="round"/><path d="M180.9 86.1L175 82" fill="none" stroke="#FDFBF7" stroke-opacity="0.45" stroke-width="0.9" stroke-linecap="round" stroke-linejoin="round"/><path d="M181.1 85.4L177.6 79.1" fill="none" stroke="#FDFBF7" stroke-opacity="0.45" stroke-width="0.9" stroke-linecap="round" stroke-linejoin="round"/><path d="M181.6 84.8L181.1 77.6" fill="none" stroke="#FDFBF7" stroke-opacity="0.45" stroke-width="0.9" stroke-linecap="round" stroke-linejoin="round"/><path d="M182.2 84.5L184.9 77.8" fill="none" stroke="#FDFBF7" stroke-opacity="0.45" stroke-width="0.9" stroke-linecap="round" stroke-linejoin="round"/><path d="M183 84.5L188.3 79.6" fill="none" stroke="#FDFBF7" stroke-opacity="0.45" stroke-width="0.9" stroke-linecap="round" stroke-linejoin="round"/><path d="M183.6 84.8L190.5 82.8" fill="none" stroke="#FDFBF7" stroke-opacity="0.45" stroke-width="0.9" stroke-linecap="round" stroke-linejoin="round"/><path d="M184.1 85.4L191.2 86.5" fill="none" stroke="#FDFBF7" stroke-opacity="0.45" stroke-width="0.9" stroke-linecap="round" stroke-linejoin="round"/><path d="M26.1 80h3v4h-3z" fill="#FDFBF7" fill-opacity=".5"/><path d="M47.7 66.7h75.8" fill="none" stroke="#FDFBF7" stroke-opacity="0.42" stroke-width="2.2" stroke-linecap="round" stroke-linejoin="round"/></g><path d="M8 100h224" fill="none" stroke="#FDFBF7" stroke-opacity="0.25" stroke-width="1.2" stroke-linecap="round" stroke-linejoin="round"/></svg>