<svg xmlns="http://www.w3.org/2000/svg" viewBox="0 0 240 120"><g transform="translate(-5 0) scale(1.058 1.008)" transform-origin="120 100"><path d="M23.6 88L25.6 69L84.7 66Q76.7 53.8 68.7 49.8L133.4 49.8Q165.3 51.8 171.3 66L177.3 60.3L212.7 61.3Q218.7 63.3 218.7 81L218.7 88Z" fill="#1A1A1E"/><circle cx="50.5" cy="86.2" r="16.8" fill="#FDFBF7" fill-opacity=".14"/><circle cx="189" cy="86.2" r="16.8" fill="#FDFBF7" fill-opacity=".14"/><path d="M135.4 52.8L172.3 68L105.2 68L105.2 52.8Z" fill="#FDFBF7" fill-opacity="0.22"/><path d="M109.2 52.8L109.2 68L78.7 68L73.7 52.8Z" fill="#FDFBF7" fill-opacity="0.22"/><path d="M107.2 71V84" fill="none" stroke="#FDFBF7" stroke-opacity="0.35" stroke-width="1.2" stroke-linecap="round" stroke-linejoin="round"/><path d="M110.2 73.3h10" fill="none" stroke="#FDFBF7" stroke-opacity="0.45" stroke-width="2" stroke-linecap="round" stroke-linejoin="round"/><path d="M212.7 63.3h5v4h-5z" fill="#FDFBF7"/><path d="M23.6 71h3v5h-3z" fill="#FDFBF7"/><path d="M217.7 69.3v8.700000000000003" fill="none" stroke="#FDFBF7" stroke-opacity="0.4" stroke-width="3" stroke-linecap="round" stroke-linejoin="round"/><path d="M216.7 73.3h-5M216.7 77.3h-5" fill="none" stroke="#FDFBF7" stroke-opacity="0.5" stroke-width="1.4" stroke-linecap="round" stroke-linejoin="round"/><path d="M19.6 85h6v3h-6z" fill="#1A1A1E"/><circle cx="50.5" cy="86.2" r="13.8" fill="#1A1A1E"/><circle cx="50.5" cy="86.2" r="9.108" fill="none" stroke="#FDFBF7" stroke-opacity="0.6" stroke-width="1.6"/><circle cx="50.5" cy="86.2" r="2.07" fill="#FDFBF7" fill-opacity=".55"/><circle cx="50.5" cy="86.2" r="6.9" fill="none" stroke="#FDFBF7" stroke-opacity="0.3" stroke-width="4"/><circle cx="50.5" cy="86.2" r="3.9" fill="#FDFBF7" fill-opacity=".45"/><circle cx="189" cy="86.2" r="13.8" fill="#1A1A1E"/><circle cx="189" cy="86.2" r="9.108" fill="none" stroke="#FDFBF7" stroke-opacity="0.6" stroke-width="1.6"/><circle cx="189" cy="86.2" r="2.07" fill="#FDFBF7" fill-opacity=".55"/><circle cx="189" cy="86.2" r="6.9" fill="none" stroke="#FDFBF7" stroke-opacity="0.3" stroke-width="4"/><circle cx="189" cy="86.2" r="3.9" fill="#FDFBF7" fill-opacity=".45"/><path d="M78.2 53.4h61.6" fill="none" stroke="#FDFBF7" stroke-opacity="0.42" stroke-width="2.2" stroke-linecap="round" stroke-linejoin="round"/></g><path d="M8 100h224" fill="none" stroke="#FDFBF7" stroke-opacity="0.25" stroke-width="1.2" stroke-linecap="round" stroke-linejoin="round"/></svg>