<svg xmlns="http://www.w3.org/2000/svg" viewBox="0 0 240 120"><g transform="translate(-1.9 0) scale(0.975 1.033)" transform-origin="120 100"><path d="M44 82L54 66L84 60L138 54L170 58L190 66L196 82Z" fill="#1A1A1E"/><path d="M80 60L96 30L150 26L176 56" fill="none" stroke="#FDFBF7" stroke-opacity="0.8" stroke-width="3" stroke-linecap="round" stroke-linejoin="round"/><path d="M96 30L96 60M150 26L152 54" fill="none" stroke="#FDFBF7" stroke-opacity="0.6" stroke-width="2" stroke-linecap="round" stroke-linejoin="round"/><path d="M100 34L148 30L150 52L102 56Z" fill="#FDFBF7" fill-opacity="0.22"/><path d="M104 60L140 58L142 74L108 76Z" fill="#1A1A1E" fill-opacity="0.85"/><circle cx="62" cy="84" r="16" fill="#1A1A1E"/><circle cx="62" cy="84" r="8.8" fill="none" stroke="#FDFBF7" stroke-opacity="0.55" stroke-width="1.6"/><path d="M75.1 84L78 84M72.6 91.7L74.9 93.4M66.1 96.5L66.9 99.2M57.9 96.5L57.1 99.2M51.4 91.7L49.1 93.4M48.9 84L46 84M51.4 76.3L49.1 74.6M57.9 71.5L57.1 68.8M66.1 71.5L66.9 68.8M72.6 76.3L74.9 74.6" fill="none" stroke="#FDFBF7" stroke-opacity="0.5" stroke-width="2" stroke-linecap="round" stroke-linejoin="round"/><circle cx="178" cy="84" r="16" fill="#1A1A1E"/><circle cx="178" cy="84" r="8.8" fill="none" stroke="#FDFBF7" stroke-opacity="0.55" stroke-width="1.6"/><path d="M191.1 84L194 84M188.6 91.7L190.9 93.4M182.1 96.5L182.9 99.2M173.9 96.5L173.1 99.2M167.4 91.7L165.1 93.4M164.9 84L162 84M167.4 76.3L165.1 74.6M173.9 71.5L173.1 68.8M182.1 71.5L182.9 68.8M188.6 76.3L190.9 74.6" fill="none" stroke="#FDFBF7" stroke-opacity="0.5" stroke-width="2" stroke-linecap="round" stroke-linejoin="round"/><path d="M48.6 60.7h68.6" fill="none" stroke="#FDFBF7" stroke-opacity="0.42" stroke-width="2.2" stroke-linecap="round" stroke-linejoin="round"/></g><path d="M8 100h224" fill="none" stroke="#FDFBF7" stroke-opacity="0.25" stroke-width="1.2" stroke-linecap="round" stroke-linejoin="round"/></svg>