<svg xmlns="http://www.w3.org/2000/svg" viewBox="0 0 240 120"><g transform="translate(2.2 0) scale(0.994 1.026)" transform-origin="120 100"><path d="M16.8 88L18.8 66L90.8 63Q82.8 52 74.8 48L150.8 48Q165.3 50 171.3 63L177.3 57.8L221.7 58.8Q227.7 60.8 227.7 81L227.7 88Z" fill="#1A1A1E"/><circle cx="48.9" cy="87.6" r="15.4" fill="#FDFBF7" fill-opacity=".14"/><circle cx="194" cy="87.6" r="15.4" fill="#FDFBF7" fill-opacity=".14"/><path d="M152.8 51L172.3 65L117.8 65L117.8 51Z" fill="#FDFBF7" fill-opacity="0.22"/><path d="M121.8 51L121.8 65L88.8 65L81.8 51Z" fill="#FDFBF7" fill-opacity="0.22"/><path d="M90.8 65L83.8 51L78.8 52L82.8 65Z" fill="#FDFBF7" fill-opacity="0.16"/><path d="M151.8 50Q116.8 48 81.8 50" fill="none" stroke="#FDFBF7" stroke-opacity="0.5" stroke-width="1.2" stroke-linecap="round" stroke-linejoin="round"/><path d="M119.8 68V84" fill="none" stroke="#FDFBF7" stroke-opacity="0.35" stroke-width="1.2" stroke-linecap="round" stroke-linejoin="round"/><path d="M86.8 68V84" fill="none" stroke="#FDFBF7" stroke-opacity="0.28" stroke-width="1" stroke-linecap="round" stroke-linejoin="round"/><path d="M122.8 68.8h10" fill="none" stroke="#FDFBF7" stroke-opacity="0.45" stroke-width="2" stroke-linecap="round" stroke-linejoin="round"/><path d="M90.8 68.8h8" fill="none" stroke="#FDFBF7" stroke-opacity="0.4" stroke-width="2" stroke-linecap="round" stroke-linejoin="round"/><path d="M26.8 73L213.7 70" fill="none" stroke="#FDFBF7" stroke-opacity="0.4" stroke-width="1.4" stroke-linecap="round" stroke-linejoin="round"/><path d="M219.7 60.8h7v3h-7z" fill="#FDFBF7"/><path d="M16.8 68h3v5h-3z" fill="#FDFBF7"/><path d="M218.7 61.8h7" fill="none" stroke="#FDFBF7" stroke-opacity="0.9" stroke-width="1" stroke-linecap="round" stroke-linejoin="round"/><path d="M226.7 64.8L226.7 78" fill="none" stroke="#FDFBF7" stroke-opacity="0.45" stroke-width="4" stroke-linecap="round" stroke-linejoin="round"/><path d="M224.7 68.8h-3M224.7 72.8h-3M224.7 76.8h-3" fill="none" stroke="#FDFBF7" stroke-opacity="0.5" stroke-width="1" stroke-linecap="round" stroke-linejoin="round"/><path d="M94.8 48l4 -4h6l-2 4z" fill="#1A1A1E"/><path d="M12.8 85h6v3h-6z" fill="#1A1A1E"/><path d="M12.8 81h6v3h-6z" fill="#1A1A1E"/><circle cx="48.9" cy="87.6" r="12.4" fill="#1A1A1E"/><circle cx="48.9" cy="87.6" r="8.184000000000001" fill="none" stroke="#FDFBF7" stroke-opacity="0.6" stroke-width="1.6"/><circle cx="48.9" cy="87.6" r="1.8599999999999999" fill="#FDFBF7" fill-opacity=".55"/><circle cx="48.9" cy="87.6" r="4.960000000000001" fill="none" stroke="#FDFBF7" stroke-opacity="0.45" stroke-width="1"/><path d="M42.699999999999996 87.6h12.4M48.9 81.39999999999999v12.4M44.436 83.136L53.364 92.064M53.364 83.136L44.436 92.064" fill="none" stroke="#FDFBF7" stroke-opacity="0.4" stroke-width="1" stroke-linecap="round" stroke-linejoin="round"/><circle cx="194" cy="87.6" r="12.4" fill="#1A1A1E"/><circle cx="194" cy="87.6" r="8.184000000000001" fill="none" stroke="#FDFBF7" stroke-opacity="0.6" stroke-width="1.6"/><circle cx="194" cy="87.6" r="1.8599999999999999" fill="#FDFBF7" fill-opacity=".55"/><circle cx="194" cy="87.6" r="4.960000000000001" fill="none" stroke="#FDFBF7" stroke-opacity="0.45" stroke-width="1"/><path d="M187.8 87.6h12.4M194 81.39999999999999v12.4M189.536 83.136L198.464 92.064M198.464 83.136L189.536 92.064" fill="none" stroke="#FDFBF7" stroke-opacity="0.4" stroke-width="1" stroke-linecap="round" stroke-linejoin="round"/><path d="M18.8 59h20v3h-16l-2 3h-2z" fill="#1A1A1E"/><path d="M65 50.8h72.5" fill="none" stroke="#FDFBF7" stroke-opacity="0.42" stroke-width="2.2" stroke-linecap="round" stroke-linejoin="round"/></g><path d="M8 100h224" fill="none" stroke="#FDFBF7" stroke-opacity="0.25" stroke-width="1.2" stroke-linecap="round" stroke-linejoin="round"/></svg>