<svg xmlns="http://www.w3.org/2000/svg" viewBox="0 0 240 120"><g transform="translate(-2.8 0) scale(1.015 0.979)" transform-origin="120 100"><path d="M16.6 88L18.6 71L28.6 69L74.4 54.5L138.4 54.5L173.9 67L181.9 68.3L217.7 69.3L223.7 81L223.7 88Z" fill="#1A1A1E"/><circle cx="50.1" cy="85.5" r="17.5" fill="#FDFBF7" fill-opacity=".14"/><circle cx="194.9" cy="85.5" r="17.5" fill="#FDFBF7" fill-opacity=".14"/><path d="M140.4 57.5L178.9 70L108.9 70L108.9 57.5Z" fill="#FDFBF7" fill-opacity="0.22"/><path d="M112.9 57.5L112.9 70L78.4 70L73.4 57.5Z" fill="#FDFBF7" fill-opacity="0.22"/><path d="M76.4 55.5L108.9 55.5" fill="none" stroke="#FDFBF7" stroke-opacity="0.35" stroke-width="2.2" stroke-linecap="round" stroke-linejoin="round"/><path d="M110.9 73V84" fill="none" stroke="#FDFBF7" stroke-opacity="0.35" stroke-width="1.2" stroke-linecap="round" stroke-linejoin="round"/><path d="M113.9 75.5h10" fill="none" stroke="#FDFBF7" stroke-opacity="0.45" stroke-width="2" stroke-linecap="round" stroke-linejoin="round"/><path d="M68.6 85L176.4 85" fill="none" stroke="#FDFBF7" stroke-opacity="0.45" stroke-width="2.2" stroke-linecap="round" stroke-linejoin="round"/><path d="M215.7 71.3h7v4h-7z" fill="#FDFBF7"/><path d="M16.6 73h3v5h-3z" fill="#FDFBF7"/><path d="M214.7 72.3h7" fill="none" stroke="#FDFBF7" stroke-opacity="0.9" stroke-width="1" stroke-linecap="round" stroke-linejoin="round"/><path d="M222.7 75.3L222.7 78" fill="none" stroke="#FDFBF7" stroke-opacity="0.45" stroke-width="4" stroke-linecap="round" stroke-linejoin="round"/><path d="M220.7 79.3h-3M220.7 83.3h-3M220.7 87.3h-3" fill="none" stroke="#FDFBF7" stroke-opacity="0.5" stroke-width="1" stroke-linecap="round" stroke-linejoin="round"/><path d="M12.600000000000001 85h6v3h-6z" fill="#1A1A1E"/><path d="M12.600000000000001 81h6v3h-6z" fill="#1A1A1E"/><circle cx="50.1" cy="85.5" r="14.5" fill="#1A1A1E"/><circle cx="50.1" cy="85.5" r="9.57" fill="none" stroke="#FDFBF7" stroke-opacity="0.6" stroke-width="1.6"/><circle cx="50.1" cy="85.5" r="2.175" fill="#FDFBF7" fill-opacity=".55"/><circle cx="50.1" cy="85.5" r="6.525" fill="none" stroke="#FDFBF7" stroke-opacity="0.35" stroke-width="3"/><circle cx="50.1" cy="85.5" r="4.35" fill="none" stroke="#FDFBF7" stroke-opacity="0.4" stroke-width="1"/><circle cx="194.9" cy="85.5" r="14.5" fill="#1A1A1E"/><circle cx="194.9" cy="85.5" r="9.57" fill="none" stroke="#FDFBF7" stroke-opacity="0.6" stroke-width="1.6"/><circle cx="194.9" cy="85.5" r="2.175" fill="#FDFBF7" fill-opacity=".55"/><circle cx="194.9" cy="85.5" r="6.525" fill="none" stroke="#FDFBF7" stroke-opacity="0.35" stroke-width="3"/><circle cx="194.9" cy="85.5" r="4.35" fill="none" stroke="#FDFBF7" stroke-opacity="0.4" stroke-width="1"/><path d="M16.6 85h14l-2 3h-12z" fill="#1A1A1E"/></g><path d="M8 100h224" fill="none" stroke="#FDFBF7" stroke-opacity="0.25" stroke-width="1.2" stroke-linecap="round" stroke-linejoin="round"/></svg>