<svg xmlns="http://www.w3.org/2000/svg" viewBox="0 0 240 120"><g transform="translate(0.5 0) scale(0.969 1.01)" transform-origin="120 100"><path d="M22 86L22 62L114 62L114 44Q114 42 118 42L154 42L176 60L182 56L217 57L222 78L222 86Z" fill="#1A1A1E"/><path d="M24 64L112 64" fill="none" stroke="#FDFBF7" stroke-opacity="0.4" stroke-width="1.4" stroke-linecap="round" stroke-linejoin="round"/><path d="M24 72L112 72" fill="none" stroke="#FDFBF7" stroke-opacity="0.3" stroke-width="1.2" stroke-linecap="round" stroke-linejoin="round"/><path d="M156 45L180 62L110 62L110 45Z" fill="#FDFBF7" fill-opacity="0.22"/><path d="M216 60h5v4h-5z" fill="#FDFBF7"/><path d="M22 65h3v5h-3z" fill="#FDFBF7"/><circle cx="46.7" cy="86.1" r="13.9" fill="#1A1A1E"/><circle cx="46.7" cy="86.1" r="8.618" fill="none" stroke="#FDFBF7" stroke-opacity="0.6" stroke-width="1.6"/><circle cx="46.7" cy="86.1" r="2.502" fill="#FDFBF7" fill-opacity=".6"/><path d="M49.5 86.1L54.8 86.1" fill="none" stroke="#FDFBF7" stroke-opacity="0.45" stroke-width="1.4" stroke-linecap="round" stroke-linejoin="round"/><path d="M48.1 88.5L50.7 93.1" fill="none" stroke="#FDFBF7" stroke-opacity="0.45" stroke-width="1.4" stroke-linecap="round" stroke-linejoin="round"/><path d="M45.3 88.5L42.7 93.1" fill="none" stroke="#FDFBF7" stroke-opacity="0.45" stroke-width="1.4" stroke-linecap="round" stroke-linejoin="round"/><path d="M43.9 86.1L38.6 86.1" fill="none" stroke="#FDFBF7" stroke-opacity="0.45" stroke-width="1.4" stroke-linecap="round" stroke-linejoin="round"/><path d="M45.3 83.7L42.7 79.1" fill="none" stroke="#FDFBF7" stroke-opacity="0.45" stroke-width="1.4" stroke-linecap="round" stroke-linejoin="round"/><path d="M48.1 83.7L50.7 79.1" fill="none" stroke="#FDFBF7" stroke-opacity="0.45" stroke-width="1.4" stroke-linecap="round" stroke-linejoin="round"/><circle cx="188.4" cy="86.1" r="13.9" fill="#1A1A1E"/><circle cx="188.4" cy="86.1" r="8.618" fill="none" stroke="#FDFBF7" stroke-opacity="0.6" stroke-width="1.6"/><circle cx="188.4" cy="86.1" r="2.502" fill="#FDFBF7" fill-opacity=".6"/><path d="M191.2 86.1L196.5 86.1" fill="none" stroke="#FDFBF7" stroke-opacity="0.45" stroke-width="1.4" stroke-linecap="round" stroke-linejoin="round"/><path d="M189.8 88.5L192.4 93.1" fill="none" stroke="#FDFBF7" stroke-opacity="0.45" stroke-width="1.4" stroke-linecap="round" stroke-linejoin="round"/><path d="M187 88.5L184.4 93.1" fill="none" stroke="#FDFBF7" stroke-opacity="0.45" stroke-width="1.4" stroke-linecap="round" stroke-linejoin="round"/><path d="M185.6 86.1L180.3 86.1" fill="none" stroke="#FDFBF7" stroke-opacity="0.45" stroke-width="1.4" stroke-linecap="round" stroke-linejoin="round"/><path d="M187 83.7L184.4 79.1" fill="none" stroke="#FDFBF7" stroke-opacity="0.45" stroke-width="1.4" stroke-linecap="round" stroke-linejoin="round"/><path d="M189.8 83.7L192.4 79.1" fill="none" stroke="#FDFBF7" stroke-opacity="0.45" stroke-width="1.4" stroke-linecap="round" stroke-linejoin="round"/><path d="M66 51.5h34.7" fill="none" stroke="#FDFBF7" stroke-opacity="0.42" stroke-width="2.2" stroke-linecap="round" stroke-linejoin="round"/></g><path d="M8 100h224" fill="none" stroke="#FDFBF7" stroke-opacity="0.25" stroke-width="1.2" stroke-linecap="round" stroke-linejoin="round"/></svg>